<?xml version="1.0" encoding="utf-8"?>
<!-- Generator: Adobe Illustrator 19.0.0, SVG Export Plug-In . SVG Version: 6.00 Build 0)  -->
<svg version="1.1" id="Capa_1" xmlns="http://www.w3.org/2000/svg" xmlns:xlink="http://www.w3.org/1999/xlink" x="0px" y="0px"
	 viewBox="-49 141 512 512" style="enable-background:new -49 141 512 512;" xml:space="preserve">
<style type="text/css">
	.st0{fill:#1662A7;}
	.st1{fill:#FAA515;}
	.st2{fill:#FAD207;}
	.st3{fill:#FAF063;}
</style>
<g>
	<path class="st0" d="M408.7,602.1l-61.6-13.6L328,648.9c-1.4,4.3-7.2,5-9.5,1l-76.3-132.5c37.6-8.1,71-27.4,96.6-54.2l75.5,131.2
		C416.7,598.3,413.2,603.1,408.7,602.1L408.7,602.1z"/>
	<path class="st0" d="M408.7,602.1l-57-12.5c-2.6-0.6-5.3,1-6.1,3.5l6.1-19.1c0.8-2.6,3.5-4.1,6.1-3.5l49,10.9l7.5,13
		C416.7,598.3,413.2,603.1,408.7,602.1L408.7,602.1z"/>
	<path class="st0" d="M173,515.8L95.5,650.4c-2.3,3.9-8.1,3.3-9.5-1l-17.7-55.8c-0.8-2.6-3.5-4.1-6.1-3.5l-57,12.5
		c-4.4,1-7.9-3.8-5.7-7.7l72-125.2C98.5,495.2,134.8,509.6,173,515.8L173,515.8z"/>
	<g>
		<path class="st0" d="M81.8,488.3L17.6,599.9l-12.4,2.7c-4.4,1-7.9-3.8-5.7-7.7l61.3-106.5l16.6-28.9c4.5,4.2,9.1,8.2,14,12
			L81.8,488.3z"/>
		<path class="st0" d="M103.1,637.2l-7.6,13.1c-2.3,3.9-8.1,3.3-9.5-1l-17.7-55.8c-0.8-2.6-3.5-4.1-6.1-3.5l19.5-4.3
			c2.6-0.6,5.3,0.9,6.1,3.5L103.1,637.2z"/>
		<path class="st0" d="M73.4,466.5l50.9,23l48.6,26.3l-13,22.6c-36.4-7.4-70.1-24.3-98-49.2c-0.3-0.3-0.7-0.6-1-0.9L73.4,466.5z"/>
		<path class="st0" d="M349.7,482l-10.8-18.8l-57.4,25.3l-39.3,28.9l4.4,7.7l10.8,18.8l61,106c2.3,3.9,8.1,3.3,9.5-1l3.9-12.3
			L271.2,531C300.6,520.8,327.3,504.1,349.7,482L349.7,482z"/>
	</g>
	<path class="st1" d="M396.8,331.4c0,51.2-20.1,97.6-52.9,131.8c-25.7,26.8-59.1,46.1-96.6,54.2c-13,2.8-26.4,4.3-40.2,4.3
		c-10.5,0-20.9-0.9-30.9-2.5c-36.2-6-69-22.2-95.2-45.6c-1.4-1.3-2.8-2.5-4.2-3.8c-4.9-4.6-9.5-9.5-13.9-14.7
		c-4.2-4.9-8.2-10.1-11.8-15.4c-11.1-16-19.8-33.9-25.6-53c-5.3-17.5-8.1-36-8.1-55.3c0-105.1,85-190.4,189.8-190.4
		c19.2,0,37.7,2.9,55.1,8.2c19.1,5.8,36.8,14.5,52.8,25.6c5.3,3.7,10.5,7.7,15.4,11.9c6.6,5.6,12.7,11.7,18.5,18.2
		C378.7,238.5,396.8,282.8,396.8,331.4L396.8,331.4z"/>
	<ellipse class="st2" cx="207" cy="331.4" rx="135.9" ry="136.3"/>
	<path class="st3" d="M207,195c-75.1,0-135.9,61-135.9,136.3S131.9,467.7,207,467.7s135.9-61,135.9-136.3S282.1,195,207,195z
		 M207,452c-66.3,0-120.2-54.1-120.2-120.6S140.7,210.8,207,210.8s120.2,54.1,120.2,120.6S273.3,452,207,452L207,452z"/>
	<path class="st0" d="M211.7,256l18.7,38.1c0.8,1.6,2.2,2.6,4,2.9l42,6c4.3,0.6,6,5.9,2.9,8.9l-30.4,29.6c-1.2,1.2-1.8,2.9-1.5,4.6
		l7.3,41.9c0.7,4.3-3.8,7.5-7.6,5.5l-37.5-19.8c-1.5-0.8-3.4-0.8-4.9,0l-37.5,19.8c-3.8,2-8.3-1.2-7.6-5.5l7.3-41.9
		c0.3-1.7-0.3-3.4-1.5-4.6l-30.4-29.6c-3.1-3-1.4-8.3,2.9-8.9l42-6c1.7-0.2,3.2-1.3,4-2.9l18.7-38.1
		C204.2,252.1,209.8,252.1,211.7,256L211.7,256z"/>
</g>
</svg>
